HIERARCHY
ROOT Hips
{
  OFFSET -125.086 92.215 135.881
  CHANNELS 6 Xposition Yposition Zposition Zrotation Xrotation Yrotation
  JOINT LeftUpLeg
  {
    OFFSET 8.64259 1.95398 -2.38835
    CHANNELS 3 Zrotation Xrotation Yrotation
    JOINT LeftLeg
    {
      OFFSET 43.7702 0 0
      CHANNELS 3 Zrotation Xrotation Yrotation
      JOINT LeftFoot
      {
        OFFSET 40.6238 0 0
        CHANNELS 3 Zrotation Xrotation Yrotation
        JOINT LeftToeBase
        {
          OFFSET 12.7242 0 0
          CHANNELS 3 Zrotation Xrotation Yrotation
          End Site
          {
            OFFSET 0 0 0
          }
        }
      }
    }
  }
  JOINT RightUpLeg
  {
    OFFSET -8.2249 1.95398 -2.59336
    CHANNELS 3 Zrotation Xrotation Yrotation
    JOINT RightLeg
    {
      OFFSET 43.5653 0 0
      CHANNELS 3 Zrotation Xrotation Yrotation
      JOINT RightFoot
      {
        OFFSET 40.6238 0 0
        CHANNELS 3 Zrotation Xrotation Yrotation
        JOINT RightToeBase
        {
          OFFSET 12.7242 0 0
          CHANNELS 3 Zrotation Xrotation Yrotation
          End Site
          {
            OFFSET 0 0 0
          }
        }
      }
    }
  }
  JOINT Spine
  {
    OFFSET 0.165834 0.87714 6.61349
    CHANNELS 3 Zrotation Xrotation Yrotation
    JOINT Spine1
    {
      OFFSET 7.38963 1.71661e-005 0
      CHANNELS 3 Zrotation Xrotation Yrotation
      JOINT Spine2
      {
        OFFSET 11.9445 1.14441e-005 0
        CHANNELS 3 Zrotation Xrotation Yrotation
        JOINT Spine3
        {
          OFFSET 14.7254 4.19617e-005 0
          CHANNELS 3 Zrotation Xrotation Yrotation
          JOINT Spine4
          {
            OFFSET 10.9679 0 0
            CHANNELS 3 Zrotation Xrotation Yrotation
            JOINT RightShoulder
            {
              OFFSET 2.46616 -1.6653 3.69651
              CHANNELS 3 Zrotation Xrotation Yrotation
              JOINT RightArm
              {
                OFFSET 13.0012 0 0
                CHANNELS 3 Zrotation Xrotation Yrotation
                JOINT RightForeArm
                {
                  OFFSET 28.7848 1.52588e-005 0
                  CHANNELS 3 Zrotation Xrotation Yrotation
                  JOINT RightHand
                  {
                    OFFSET 26.5688 1.52588e-005 0
                    CHANNELS 3 Zrotation Xrotation Yrotation
                    End Site
                    {
                      OFFSET 0 0 0
                    }
                  }
                }
              }
            }
            JOINT LeftShoulder
            {
              OFFSET 2.38034 -1.29275 -3.7523
              CHANNELS 3 Zrotation Xrotation Yrotation
              JOINT LeftArm
              {
                OFFSET 16.3182 6.10352e-005 0
                CHANNELS 3 Zrotation Xrotation Yrotation
                JOINT LeftForeArm
                {
                  OFFSET 27.0901 0 0
                  CHANNELS 3 Zrotation Xrotation Yrotation
                  JOINT LeftHand
                  {
                    OFFSET 24.5451 1.52588e-005 0
                    CHANNELS 3 Zrotation Xrotation Yrotation
                    End Site
                    {
                      OFFSET 0 0 0
                    }
                  }
                }
              }
            }
            JOINT Neck
            {
              OFFSET 5.0226 -0.0266342 0
              CHANNELS 3 Zrotation Xrotation Yrotation
              JOINT Head
              {
                OFFSET 6.69363 2.86102e-005 0
                CHANNELS 3 Zrotation Xrotation Yrotation
                End Site
                {
                  OFFSET 0 0 0
                }
              }
            }
          }
        }
      }
    }
  }
}
MOTION
Frames:	12
Frame Time:	0.0416667
-139.155 97.3111 -20.3951 148.799 -86.7 148.947 -176.055 -0.848208 88.9406 -11.0908 19.8698 3.66659 58.741 4.65327 11.1706 38.6032 -0.887061 1.6458 175.738 3.40323 89.1523 -19.2576 -2.33869 -0.855102 61.7106 0.354388 12.0385 36.3463 -1.0347 -4.69701 0.0721487 7.01206 -90.1928 12.8497 0.0509237 -0.391661 1.17864 0.0336447 -0.393533 -21.3561 0.166288 -0.358244 -1.34345 0.166286 -0.358244 112.339 -55.0113 -67.2799 30.865 3.84593 -13.8052 0.120042 -27.4571 -9.66075 -14.5435 -0.935368 2.33454 -76.1373 -45.1789 99.6128 -46.5632 -8.04348 -23.2125 6.73533 54.0569 0.0138279 -1.95905 -0.110854 -9.99693 2.07859 0.614832 -6.184 -21.1408 0.491425 7.14706 
-139.197 97.3169 -20.3715 149.551 -86.5571 149.76 -175.949 -1.42226 89.0888 -10.3264 20.1371 3.70883 58.758 4.74765 10.8484 38.1661 -0.884443 2.50707 175.779 3.27137 89.1388 -19.306 0.140756 -0.917113 61.9724 0.791329 14.8156 34.3823 -0.71308 -3.30459 0.0499044 7.01303 -90.2254 12.8476 -0.00879157 -0.449545 1.17654 -0.0285638 -0.448737 -21.358 0.126718 -0.4314 -1.34538 0.12672 -0.431414 111.893 -54.7574 -67.8856 30.8884 4.13392 -13.4008 -0.512794 -29.223 -9.98927 -13.8257 -0.905978 2.48863 -75.7262 -45.8863 100.247 -45.9713 -8.11747 -23.2087 6.63952 54.6766 0.0140381 -0.771654 -0.18321 -11.0777 2.03421 0.74094 -5.35384 -21.4203 0.570478 6.47313 
-139.177 97.3067 -20.3212 147.612 -86.6266 147.665 -176.052 -1.85128 88.9119 -9.34191 20.2431 3.67795 58.5375 4.76909 11.0114 37.8215 -0.855395 2.29083 175.61 3.46301 88.858 -19.5047 1.26772 -0.836375 62.1893 1.03902 16.3195 33.3892 -0.53171 -3.27357 0.0261116 6.98573 -90.2197 12.9021 -0.0534146 -0.432873 1.2311 -0.072415 -0.430111 -21.3035 0.0791435 -0.428911 -1.29085 0.0791493 -0.428915 111.678 -54.6069 -68.1743 30.9854 4.10933 -13.2299 -0.424416 -29.3809 -9.76116 -14.3622 -0.928729 2.37552 -75.5611 -46.1384 100.5 -45.7581 -8.1949 -23.1324 6.73601 54.9838 0.0141454 -0.901202 -0.184786 -11.7254 1.63098 0.849367 -5.35271 -21.0575 0.64398 6.69722 
-139.127 97.2966 -20.3092 147.56 -86.8523 147.456 -176.234 -1.73504 88.6863 -9.22316 20.0262 3.65986 58.415 4.68709 11.0394 37.8845 -0.858709 2.27101 175.522 3.77751 88.6535 -19.6879 0.95156 -0.818938 62.2335 1.01954 16.1473 33.4549 -0.559241 -3.0062 0.0454425 6.97484 -90.1995 12.924 -0.00539938 -0.398268 1.25305 -0.0229161 -0.397649 -21.2817 0.11455 -0.381476 -1.269 0.114544 -0.381482 111.805 -54.6988 -68.0053 30.5096 3.45972 -13.1267 -0.113482 -28.8426 -10.0636 -14.3587 -0.965018 2.68107 -75.6113 -46.1117 100.421 -45.7081 -8.05171 -23.2106 6.64137 55.4689 0.0143189 -1.21792 -0.160616 -11.3247 2.14717 0.665654 -6.68229 -21.6883 0.385999 8.43077 
-139.134 97.3115 -20.337 149.789 -86.8032 149.727 -176.176 -1.8676 88.7237 -9.10369 19.8463 3.63925 58.3628 4.67095 10.9059 37.8812 -0.861774 2.36319 175.613 3.66516 88.7273 -19.6608 0.994207 -0.903929 62.3207 0.97795 16.211 33.2936 -0.52912 -3.01804 0.055836 6.98729 -90.2138 12.8991 0.00841865 -0.428425 1.22809 -0.0104476 -0.428383 -21.3065 0.136779 -0.406085 -1.29389 0.136784 -0.406093 111.865 -54.6621 -67.9101 30.5611 3.67146 -13.3008 -0.146868 -29.1854 -9.73848 -14.178 -0.899591 2.23628 -75.5544 -46.1686 100.509 -45.6445 -7.90937 -23.3318 6.50995 55.4444 0.01431 -1.53434 -0.137161 -10.7396 2.20924 0.669403 -7.00383 -21.7528 0.365404 8.89338 
-139.179 97.3129 -20.3621 148.365 -86.1068 148.89 -175.673 -1.70262 89.4407 -10.4783 20.7512 3.79854 58.9396 4.91153 11.0129 38.1271 -0.878105 2.3815 175.766 2.74133 89.353 -19.0794 1.55424 -0.807613 61.9513 1.00989 15.952 33.3244 -0.55724 -2.63251 0.0159258 7.04374 -90.2826 12.7857 -0.103514 -0.552393 1.1146 -0.127726 -0.547311 -21.4196 0.0672843 -0.55796 -1.40697 0.0672763 -0.557975 111.859 -54.6939 -67.9254 30.5524 3.75043 -13.1884 -0.290903 -29.2521 -10.0316 -13.8255 -0.925507 2.65592 -75.5291 -46.269 100.545 -45.4724 -7.91202 -23.2349 6.09778 52.7673 0.0134149 -1.50481 -0.128469 -9.37758 2.23882 0.709512 -6.37213 -21.8269 0.435047 8.05208 
-139.176 97.3152 -20.3629 148.894 -86.1636 149.371 -175.704 -1.672 89.3828 -10.4947 20.6319 3.77989 58.9691 4.92033 10.9817 38.002 -0.865185 2.23692 175.769 2.78586 89.3245 -19.0723 1.45327 -0.829718 61.9682 0.981489 15.8988 33.4203 -0.568953 -2.72854 0.0133938 7.0412 -90.28 12.7909 -0.107308 -0.546785 1.11984 -0.131269 -0.541539 -21.4144 0.0619788 -0.553761 -1.40175 0.0619801 -0.553763 111.814 -54.6452 -67.9825 30.6036 3.54296 -13.1556 -0.203797 -28.8392 -10.0645 -14.0266 -0.908669 2.39627 -75.5255 -46.1554 100.556 -45.549 -7.80078 -23.2373 6.07744 53.193 0.0135477 -1.45707 -0.131179 -9.46615 2.24038 0.770131 -6.66062 -21.9573 0.451722 8.54933 
-139.172 97.3065 -20.3774 150.142 -86.1952 150.564 -175.697 -1.5502 89.3488 -10.7355 20.2533 3.71922 59.1243 4.97776 10.8126 37.8926 -0.845461 1.88742 175.767 2.8797 89.2589 -19.2727 1.52622 -0.871422 62.1204 1.02168 16.2686 33.3135 -0.52415 -3.16783 0.0218223 7.04273 -90.2847 12.7878 -0.0928549 -0.558007 1.11678 -0.117325 -0.553386 -21.4174 0.0791322 -0.560117 -1.40477 0.0791416 -0.560119 111.701 -54.518 -68.1264 30.7506 3.46568 -13.1341 -0.188443 -28.5829 -10.1186 -13.9757 -0.893961 2.30025 -75.4127 -46.449 100.723 -45.3332 -7.80726 -23.4162 6.0254 53.4382 0.0136258 -1.34439 -0.137565 -9.61198 2.21135 0.834712 -6.43341 -21.8987 0.503338 8.42013 
-139.169 97.3256 -20.3992 150.404 -86.2254 150.936 -175.617 -1.62786 89.4569 -10.5081 20.455 3.72114 59.0055 4.93036 10.857 37.9719 -0.855526 2.01729 175.862 2.83531 89.4164 -19.1027 1.32181 -0.892341 61.9497 0.970964 15.8509 33.4652 -0.560215 -3.02284 0.023422 7.04054 -90.2965 12.7922 -0.0953464 -0.58137 1.1211 -0.12083 -0.576611 -21.413 0.0837872 -0.583141 -1.40038 0.0837872 -0.583138 111.643 -54.5056 -68.2087 30.7625 3.19129 -13.08 -0.0234872 -27.9819 -10.2559 -14.0688 -0.950189 2.72345 -75.5197 -46.287 100.559 -45.5582 -7.88625 -23.3627 6.11743 53.9304 0.0137859 -1.52459 -0.129177 -9.58974 1.98069 0.800551 -5.58924 -21.5121 0.557882 7.11682 
-139.107 97.3003 -20.4305 152.125 -86.561 152.346 -175.862 -1.5065 89.073 -10.2741 19.9178 3.61284 58.918 4.9088 10.8967 37.8093 -0.835722 1.77491 175.641 3.35677 88.9818 -19.5184 1.0807 -0.828644 62.2347 0.909119 16.0102 33.0446 -0.494725 -2.83 0.0394971 7.01238 -90.2724 12.8487 -0.0519923 -0.538417 1.17765 -0.0756368 -0.535616 -21.3566 0.112221 -0.529152 -1.34399 0.112221 -0.529158 111.507 -54.3568 -68.3837 30.8449 2.91995 -13.1369 0.364381 -27.2044 -9.9968 -15.1317 -0.979952 2.37862 -75.4421 -46.4201 100.677 -45.6441 -7.97353 -23.4813 6.37831 55.2103 0.0142257 -2.76253 -0.0718635 -9.8322 2.121 0.853778 -5.79206 -21.7089 0.55134 7.65431 
-139.116 97.3055 -20.4635 151.281 -86.4089 151.615 -175.825 -1.49639 89.1771 -10.4582 20.3237 3.68612 58.8198 4.85199 11.1174 38.2093 -0.857663 1.59606 175.715 3.19183 89.1207 -19.4048 1.19625 -0.849411 62.1189 0.970271 16.103 33.1674 -0.492431 -3.2467 0.0256712 7.01711 -90.2833 12.8391 -0.0846458 -0.556244 1.16805 -0.109043 -0.551981 -21.3662 0.0864331 -0.555962 -1.3535 0.0864324 -0.55597 111.555 -54.4158 -68.3228 30.9001 3.05394 -13.1961 0.269018 -27.494 -9.98805 -14.8731 -0.976552 2.48877 -75.463 -46.4372 100.643 -45.4783 -7.89908 -23.4091 6.17623 54.6068 0.014014 -2.11726 -0.102484 -9.69881 2.31556 0.813391 -5.69497 -22.1579 0.508632 7.46016 
-139.117 97.3129 -20.4922 152.254 -86.4923 152.765 -175.736 -1.28747 89.3401 -10.7685 20.22 3.71262 59.0347 4.94605 11.0194 38.0428 -0.856451 1.89831 175.794 3.14264 89.3128 -19.1734 1.16231 -0.823505 62.0121 0.909569 15.9508 33.4259 -0.556083 -2.9708 0.0411287 7.01039 -90.3051 12.8525 -0.0644381 -0.602271 1.18144 -0.0908877 -0.598857 -21.3526 0.119536 -0.593794 -1.33997 0.119541 -0.5938 111.575 -54.4065 -68.2918 30.9819 3.26344 -13.1676 -0.0548454 -27.9925 -10.2408 -14.3076 -0.952629 2.60772 -75.4861 -46.3776 100.609 -45.6194 -7.90561 -23.4071 6.25468 54.494 0.0139753 -2.19475 -0.0990415 -9.83073 2.30821 0.69867 -6.03691 -22.1017 0.363224 8.00066 
